# xmcd
#
# Track frame offsets:
#	150
#	19400
#	32750
#	54945
#	71600
#	86915
#	106932
#	126555
#	150095
#	169195
#	183295
#	195435
#	212770
#	230240
#	246255
#	262220
#	278507
#	298802
#
# Disc length: 4260
#
# Revision: 3
# Processed by: cddbd v1.5.1PL0 Copyright (c) Steve Scherf et al.
# Submitted via: audiograbber 1.80
# Normalized: r2:DSETVAR1
#
DISCID=0a10a212
DTITLE=Various Artist - Best Sellers Of The 80's Vol. 6
DYEAR=1900
DGENRE=
TTITLE0=Dionne Warwick - Heartbreaker
TTITLE1=Dr. Hook - Sexy Eyes
TTITLE2=Elkie Brooks - No More The Fool
TTITLE3=Don Mclean - Cryin'
TTITLE4=The Flying Pickets - Only You
TTITLE5=Huey Lewis and The News - Stuck With You
TTITLE6=Dave Stewart and Candy Dulfer - Lily Was Here
TTITLE7=Dolly Parton - You Are
TTITLE8=Elaine Paige and Barbra Dickson - I Know Him So Well
TTITLE9=Renee and Renato - Save Your Love
TTITLE10=Alvin Stardust - Pretend
TTITLE11=Billy Ocean - Suddenly
TTITLE12=Air Supply - All Out Of Love
TTITLE13=Limahl - Never Ending Story
TTITLE14=Rick Astley - Never Gonna Give You Up
TTITLE15=Black Box - Ride On Time
TTITLE16=Climie Fisher - Love Changes (Everything)
TTITLE17=Ultravox - Vienna
EXTD=
EXTT0=Dionne Warwick
EXTT1=Dr. Hook
EXTT2=Elkie Brooks
EXTT3=Don McLean
EXTT4=The Flying Pickets
EXTT5=Huey Lewis And The News
EXTT6=Dave Stewart and Candy Dulfer
EXTT7=Dolly Parton
EXTT8=Elaine Page and Barbara Dickson
EXTT9=Renee and Renato
EXTT10=Alvin Stardust
EXTT11=Billy Ocean
EXTT12=Air Supply
EXTT13=Limahl
EXTT14=Rick Astley
EXTT15=Black Box
EXTT16=Climie Fisher
EXTT17=Ultravox
PLAYORDER=
